<?xml version="1.0" encoding="UTF-8" standalone="no"?>
<svg
   xmlns:dc="http://purl.org/dc/elements/1.1/"
   xmlns:cc="http://creativecommons.org/ns#"
   xmlns:rdf="http://www.w3.org/1999/02/22-rdf-syntax-ns#"
   xmlns:svg="http://www.w3.org/2000/svg"
   xmlns="http://www.w3.org/2000/svg"
   viewBox="0 0 333.33334 53.333332"
   height="53.333332"
   width="333.33334"
   id="svg10"
   version="1.1">
  <metadata
     id="metadata16">
    <rdf:RDF>
      <cc:Work
         rdf:about="">
        <dc:format>image/svg+xml</dc:format>
        <dc:type
           rdf:resource="http://purl.org/dc/dcmitype/StillImage" />
        <dc:title></dc:title>
      </cc:Work>
    </rdf:RDF>
  </metadata>
  <defs
     id="defs14" />
  <g
     id="g18">
    <path
       id="path22"
       d="m 129.33334,29.924793 c -22.47182,-0.898106 -30.111565,-0.945948 -73.101898,-0.457784 -37.544589,0.426327 -39.48764,0.389878 -40.528496,-0.760255 -1.375055,-1.519419 -2.102154,-5.755788 -1.178828,-6.868327 0.543465,-0.654835 6.025573,-0.787498 24.919646,-0.603038 13.322597,0.130067 36.372904,0.280314 51.222904,0.333881 14.850002,0.05357 35.706472,0.509117 46.347702,1.012333 15.63549,0.739388 22.60671,0.763105 36.33333,0.123608 29.35325,-1.367512 43.2148,-1.494011 82.98564,-0.75732 37.61912,0.696834 47.41014,1.19559 43.61517,2.221766 -0.94498,0.255528 -3.49498,0.173628 -5.66666,-0.182002 -4.95968,-0.812188 -8.94851,-0.836608 -8.94851,-0.05478 0,0.581217 1.08983,0.782837 11,2.035006 3.70243,0.467809 2.60045,0.534747 -5.33333,0.323965 -5.5,-0.146123 -13.45,0.04786 -17.66667,0.431075 -4.21667,0.383215 -24.01667,0.939791 -44,1.236837 -19.98334,0.297046 -38.88334,0.854846 -42,1.239558 -8.22972,1.015848 -40.60271,1.420779 -58,0.725482 z"
       style="fill:#000000;stroke-width:0.666667" />
  </g>
</svg>
